REM DIRINDEX 1\2,1\3
REM DIRNAME folder01,folder02,folder03
TITLE ""
FILE "2281-2300.mp3" MP3
  TRACK 01 AUDIO
    TITLE "0:"
    INDEX 01 00:00:00
  TRACK 02 AUDIO
    TITLE "2:cjc039_3561"
    INDEX 01 00:00:27
  TRACK 03 AUDIO
    TITLE "0:"
    INDEX 01 00:01:40
  TRACK 04 AUDIO
    TITLE "3:cjc039_3562"
    INDEX 01 00:02:14
  TRACK 05 AUDIO
    TITLE "0:"
    INDEX 01 00:04:70
  TRACK 06 AUDIO
    TITLE "2:cjc039_3563"
    INDEX 01 00:06:49
  TRACK 07 AUDIO
    TITLE "0:"
    INDEX 01 00:08:05
  TRACK 08 AUDIO
    TITLE "3:cjc039_3564"
    INDEX 01 00:08:60
  TRACK 09 AUDIO
    TITLE "0:"
    INDEX 01 00:12:26
  TRACK 10 AUDIO
    TITLE "2:cjc039_3565"
    INDEX 01 00:14:06
  TRACK 11 AUDIO
    TITLE "0:"
    INDEX 01 00:15:23
  TRACK 12 AUDIO
    TITLE "3:cjc039_3566"
    INDEX 01 00:16:00
  TRACK 13 AUDIO
    TITLE "0:"
    INDEX 01 00:19:58
  TRACK 14 AUDIO
    TITLE "2:cjc039_3567"
    INDEX 01 00:21:33
  TRACK 15 AUDIO
    TITLE "0:"
    INDEX 01 00:22:44
  TRACK 16 AUDIO
    TITLE "3:cjc039_3568"
    INDEX 01 00:23:22
  TRACK 17 AUDIO
    TITLE "0:"
    INDEX 01 00:26:01
  TRACK 18 AUDIO
    TITLE "2:cjc039_3569"
    INDEX 01 00:27:51
  TRACK 19 AUDIO
    TITLE "0:"
    INDEX 01 00:28:68
  TRACK 20 AUDIO
    TITLE "3:cjc039_3570"
    INDEX 01 00:29:48
  TRACK 21 AUDIO
    TITLE "0:"
    INDEX 01 00:32:62
  TRACK 22 AUDIO
    TITLE "2:cjc039_3571"
    INDEX 01 00:34:34
  TRACK 23 AUDIO
    TITLE "0:"
    INDEX 01 00:36:25
  TRACK 24 AUDIO
    TITLE "3:cjc039_3572"
    INDEX 01 00:37:05
  TRACK 25 AUDIO
    TITLE "0:"
    INDEX 01 00:41:16
  TRACK 26 AUDIO
    TITLE "2:cjc039_3573"
    INDEX 01 00:42:66
  TRACK 27 AUDIO
    TITLE "0:"
    INDEX 01 00:44:11
  TRACK 28 AUDIO
    TITLE "3:cjc039_3574"
    INDEX 01 00:44:61
  TRACK 29 AUDIO
    TITLE "0:"
    INDEX 01 00:48:04
  TRACK 30 AUDIO
    TITLE "2:cjc039_3575"
    INDEX 01 00:49:55
  TRACK 31 AUDIO
    TITLE "0:"
    INDEX 01 00:50:70
  TRACK 32 AUDIO
    TITLE "3:cjc039_3576"
    INDEX 01 00:51:42
  TRACK 33 AUDIO
    TITLE "0:"
    INDEX 01 00:54:44
  TRACK 34 AUDIO
    TITLE "2:cjc039_3577"
    INDEX 01 00:56:22
  TRACK 35 AUDIO
    TITLE "0:"
    INDEX 01 00:57:31
  TRACK 36 AUDIO
    TITLE "3:cjc039_3578"
    INDEX 01 00:58:07
  TRACK 37 AUDIO
    TITLE "0:"
    INDEX 01 01:01:01
  TRACK 38 AUDIO
    TITLE "2:cjc039_3579"
    INDEX 01 01:02:50
  TRACK 39 AUDIO
    TITLE "0:"
    INDEX 01 01:04:31
  TRACK 40 AUDIO
    TITLE "3:cjc039_3580"
    INDEX 01 01:05:11
  TRACK 41 AUDIO
    TITLE "0:"
    INDEX 01 01:09:05
  TRACK 42 AUDIO
    TITLE "2:cjc039_3581"
    INDEX 01 01:10:59
  TRACK 43 AUDIO
    TITLE "0:"
    INDEX 01 01:11:74
  TRACK 44 AUDIO
    TITLE "3:cjc039_3582"
    INDEX 01 01:12:56
  TRACK 45 AUDIO
    TITLE "0:"
    INDEX 01 01:15:64
  TRACK 46 AUDIO
    TITLE "2:cjc039_3583"
    INDEX 01 01:17:37
  TRACK 47 AUDIO
    TITLE "0:"
    INDEX 01 01:19:05
  TRACK 48 AUDIO
    TITLE "3:cjc039_3584"
    INDEX 01 01:19:58
  TRACK 49 AUDIO
    TITLE "0:"
    INDEX 01 01:23:15
  TRACK 50 AUDIO
    TITLE "2:cjc039_3585"
    INDEX 01 01:24:67
  TRACK 51 AUDIO
    TITLE "0:"
    INDEX 01 01:26:11
  TRACK 52 AUDIO
    TITLE "3:cjc039_3586"
    INDEX 01 01:26:56
  TRACK 53 AUDIO
    TITLE "0:"
    INDEX 01 01:30:17
  TRACK 54 AUDIO
    TITLE "2:cjc039_3587"
    INDEX 01 01:31:71
  TRACK 55 AUDIO
    TITLE "0:"
    INDEX 01 01:33:33
  TRACK 56 AUDIO
    TITLE "3:cjc039_3588"
    INDEX 01 01:34:12
  TRACK 57 AUDIO
    TITLE "0:"
    INDEX 01 01:38:10
  TRACK 58 AUDIO
    TITLE "2:cjc039_3589"
    INDEX 01 01:39:64
  TRACK 59 AUDIO
    TITLE "0:"
    INDEX 01 01:40:64
  TRACK 60 AUDIO
    TITLE "3:cjc039_3590"
    INDEX 01 01:41:48
  TRACK 61 AUDIO
    TITLE "0:"
    INDEX 01 01:44:26
  TRACK 62 AUDIO
    TITLE "2:cjc039_3591"
    INDEX 01 01:46:00
  TRACK 63 AUDIO
    TITLE "0:"
    INDEX 01 01:47:39
  TRACK 64 AUDIO
    TITLE "3:cjc039_3592"
    INDEX 01 01:48:09
  TRACK 65 AUDIO
    TITLE "0:"
    INDEX 01 01:52:10
  TRACK 66 AUDIO
    TITLE "2:cjc039_3593"
    INDEX 01 01:53:65
  TRACK 67 AUDIO
    TITLE "0:"
    INDEX 01 01:54:64
  TRACK 68 AUDIO
    TITLE "3:cjc039_3594"
    INDEX 01 01:55:44
  TRACK 69 AUDIO
    TITLE "0:"
    INDEX 01 01:58:44
  TRACK 70 AUDIO
    TITLE "2:cjc039_3595"
    INDEX 01 02:00:22
  TRACK 71 AUDIO
    TITLE "0:"
    INDEX 01 02:01:29
  TRACK 72 AUDIO
    TITLE "3:cjc039_3596"
    INDEX 01 02:02:07
  TRACK 73 AUDIO
    TITLE "0:"
    INDEX 01 02:05:33
  TRACK 74 AUDIO
    TITLE "2:cjc039_3597"
    INDEX 01 02:07:10
  TRACK 75 AUDIO
    TITLE "0:"
    INDEX 01 02:08:00
  TRACK 76 AUDIO
    TITLE "3:cjc039_3598"
    INDEX 01 02:08:56
  TRACK 77 AUDIO
    TITLE "0:"
    INDEX 01 02:12:19
  TRACK 78 AUDIO
    TITLE "2:cjc039_3599"
    INDEX 01 02:13:71
  TRACK 79 AUDIO
    TITLE "0:"
    INDEX 01 02:15:05
  TRACK 80 AUDIO
    TITLE "3:cjc039_3600"
    INDEX 01 02:15:64
  TRACK 81 AUDIO
    TITLE "0:"
    INDEX 01 02:18:63
